<svg xmlns="http://www.w3.org/2000/svg" xmlns:svg="http://www.w3.org/2000/svg" id="svg3352" width="64" height="64" version="1.1" viewBox="0 0 64 64"><defs id="defs3354"><marker id="Arrow2Mstart" orient="auto" refX="0" refY="0" style="overflow:visible"><path id="path4192" style="fill-rule:evenodd;stroke-width:.625;stroke-linejoin:round;stroke:#0f0;stroke-opacity:1;fill:#0f0;fill-opacity:1" d="M 8.7185878,4.0337352 L -2.2072895,0.016013256 L 8.7185884,-4.0017078 C 6.9730900,-1.6296469 6.9831476,1.6157441 8.7185878,4.0337352 z" transform="scale(0.6) translate(0,0)"/></marker><marker id="marker4632" orient="auto" refX="0" refY="0" style="overflow:visible"><path id="path4634" style="fill-rule:evenodd;stroke-width:.625;stroke-linejoin:round;stroke:#0f0;stroke-opacity:1;fill:#0f0;fill-opacity:1" d="M 8.7185878,4.0337352 L -2.2072895,0.016013256 L 8.7185884,-4.0017078 C 6.9730900,-1.6296469 6.9831476,1.6157441 8.7185878,4.0337352 z" transform="scale(1.1) translate(1,0)"/></marker><marker id="marker4544" orient="auto" refX="0" refY="0" style="overflow:visible"><path id="path4546" style="fill-rule:evenodd;stroke-width:.625;stroke-linejoin:round;stroke:#0f0;stroke-opacity:1;fill:#0f0;fill-opacity:1" d="M 8.7185878,4.0337352 L -2.2072895,0.016013256 L 8.7185884,-4.0017078 C 6.9730900,-1.6296469 6.9831476,1.6157441 8.7185878,4.0337352 z" transform="scale(1.1) translate(1,0)"/></marker><marker id="Arrow2Lstart" orient="auto" refX="0" refY="0" style="overflow:visible"><path id="path4186" style="fill-rule:evenodd;stroke-width:.625;stroke-linejoin:round;stroke:#0f0;stroke-opacity:1;fill:#0f0;fill-opacity:1" d="M 8.7185878,4.0337352 L -2.2072895,0.016013256 L 8.7185884,-4.0017078 C 6.9730900,-1.6296469 6.9831476,1.6157441 8.7185878,4.0337352 z" transform="scale(1.1) translate(1,0)"/></marker><marker id="marker4472" orient="auto" refX="0" refY="0" style="overflow:visible"><path id="path4474" d="M 0.0,0.0 L 5.0,-5.0 L -12.5,0.0 L 5.0,5.0 L 0.0,0.0 z" style="fill-rule:evenodd;stroke:#000;stroke-width:1pt;stroke-opacity:1;fill:#000;fill-opacity:1" transform="scale(0.8) translate(12.5,0)"/></marker><marker id="marker4444" orient="auto" refX="0" refY="0" style="overflow:visible"><path id="path4446" d="M 0.0,0.0 L 5.0,-5.0 L -12.5,0.0 L 5.0,5.0 L 0.0,0.0 z" style="fill-rule:evenodd;stroke:#000;stroke-width:1pt;stroke-opacity:1;fill:#000;fill-opacity:1" transform="scale(0.8) translate(12.5,0)"/></marker><marker id="Arrow1Lstart" orient="auto" refX="0" refY="0" style="overflow:visible"><path id="path4168" d="M 0.0,0.0 L 5.0,-5.0 L -12.5,0.0 L 5.0,5.0 L 0.0,0.0 z" style="fill-rule:evenodd;stroke:#000;stroke-width:1pt;stroke-opacity:1;fill:#000;fill-opacity:1" transform="scale(0.8) translate(12.5,0)"/></marker><marker id="Arrow2Mstart-3" orient="auto" refX="0" refY="0" style="overflow:visible"><path id="path4192-6" style="fill:red;fill-opacity:1;fill-rule:evenodd;stroke:red;stroke-width:.625;stroke-linejoin:round;stroke-opacity:1" d="M 8.7185878,4.0337352 -2.2072895,0.01601326 8.7185884,-4.0017078 c -1.7454984,2.3720609 -1.7354408,5.6174519 -6e-7,8.035443 z" transform="scale(0.6,0.6)"/></marker><marker id="Arrow2Mstart-5" orient="auto" refX="0" refY="0" style="overflow:visible"><path id="path4192-3" style="fill:#00f;fill-opacity:1;fill-rule:evenodd;stroke:#00f;stroke-width:.625;stroke-linejoin:round;stroke-opacity:1" d="M 8.7185878,4.0337352 -2.2072895,0.01601326 8.7185884,-4.0017078 c -1.7454984,2.3720609 -1.7354408,5.6174519 -6e-7,8.035443 z" transform="scale(0.6,0.6)"/></marker></defs><metadata id="metadata3357"/><g id="layer1"><path style="fill:#0f0;fill-opacity:1;fill-rule:evenodd;stroke:#0f0;stroke-width:1.30335879px;stroke-linecap:butt;stroke-linejoin:miter;stroke-opacity:1;marker-start:url(#Arrow2Mstart)" id="path3362" d="m 28.667273,6.3926843 0,29.8976897"/><path style="fill:red;fill-opacity:1;fill-rule:evenodd;stroke:red;stroke-width:1.30335879px;stroke-linecap:butt;stroke-linejoin:miter;stroke-opacity:1;marker-start:url(#Arrow2Mstart-3)" id="path3362-7" d="m 57.067323,35.908626 -29.072354,0"/><path style="fill:#00f;fill-opacity:1;fill-rule:evenodd;stroke:#00f;stroke-width:1.30335879px;stroke-linecap:butt;stroke-linejoin:miter;stroke-opacity:1;marker-start:url(#Arrow2Mstart-5)" id="path3362-5" d="M 8.3550987,56.750565 28.912358,35.609706"/></g></svg>